<svg xmlns="http://www.w3.org/2000/svg" xmlns:xlink="http://www.w3.org/1999/xlink" style="display: none;">
  <symbol id="github" viewBox="0 0 24 24">
    <path d="M12 .297c-6.63 0-12 5.373-12 12 0 5.303 3.438 9.8 8.205 11.385.6.113.82-.258.82-.577 0-.285-.01-1.04-.015-2.04-3.338.724-4.042-1.61-4.042-1.61C4.422 18.07 3.633 17.7 3.633 17.7c-1.087-.744.084-.729.084-.729 1.205.084 1.838 1.236 1.838 1.236 1.07 1.835 2.809 1.305 3.495.998.108-.776.417-1.305.76-1.605-2.665-.3-5.466-1.332-5.466-5.93 0-1.31.465-2.38 1.235-3.22-.135-.303-.54-1.523.105-3.176 0 0 1.005-.322 3.3 1.23.96-.267 1.98-.399 3-.405 1.02.006 2.04.138 3 .405 2.28-1.552 3.285-1.23 3.285-1.23.645 1.653.24 2.873.12 3.176.765.84 1.23 1.91 1.23 3.22 0 4.61-2.805 5.625-5.475 5.92.42.36.81 1.096.81 2.22 0 1.606-.015 2.896-.015 3.286 0 .315.21.69.825.57C20.565 22.092 24 17.592 24 12.297c0-6.627-5.373-12-12-12" />
  </symbol>

  <symbol id="autorenew" viewBox="0 0 24 24">
    <path d="M12 6v3l4-4-4-4v3c-4.42 0-8 3.58-8 8 0 1.57.46 3.03 1.24 4.26L6.7 14.8c-.45-.83-.7-1.79-.7-2.8 0-3.31 2.69-6 6-6zm6.76 1.74L17.3 9.2c.44.84.7 1.79.7 2.8 0 3.31-2.69 6-6 6v-3l-4 4 4 4v-3c4.42 0 8-3.58 8-8 0-1.57-.46-3.03-1.24-4.26z" />
    <path d="M0 0h24v24H0z" fill="none" />
  </symbol>

  <symbol id="illustration" viewBox="25 47.5 290 125" preserveAspectRatio >
    <title>Faux code illustration</title> 
    <desc>Faux code illustration</desc>
    <g fill="none" stroke="#FFFFFF" stroke-width="5" stroke-linecap="round">
      <g opacity="0.4">
        <line x1="47.5" y1="80" x2="62.5" y2="80"/>
        <line x1="67.5" y1="80" x2="82.5" y2="80"/>
        <line x1="92.5" y1="80" x2="102.5" y2="80"/>
        <line x1="112.5" y1="80" x2="137.5" y2="80"/>
        <line x1="147.5" y1="80" x2="222.5" y2="80"/>
        <line x1="232.5" y1="80" x2="252.5" y2="80"/>
        <line x1="262.5" y1="80" x2="277.5" y2="80"/>
        <line x1="287.5" y1="80" x2="312.5" y2="80"/>
      </g>
      <g opacity="0.8">
        <line x1="152.5" y1="50" x2="167.5" y2="50"/>
        <line x1="152.5" y1="60" x2="182.5" y2="60"/>
        <line x1="117.5" y1="90" x2="182.5" y2="90"/>
        <line x1="237.5" y1="120" x2="247.5" y2="120"/>
        <line x1="177.5" y1="130" x2="197.5" y2="130"/>
      </g>
      <g opacity="0.7">
        <line x1="47.5" y1="50" x2="82.5" y2="50"/>
        <line x1="97.5" y1="50" x2="102.5" y2="50"/>
        <line x1="127.5" y1="50" x2="142.5" y2="50"/>
        <line x1="47.5" y1="60" x2="82.5" y2="60"/>
        <line x1="127.5" y1="60" x2="142.5" y2="60"/>
        <line x1="47.5" y1="90" x2="77.5" y2="90"/>
        <line x1="47.5" y1="100" x2="77.5" y2="100"/>
        <line x1="72.5" y1="120" x2="92.5" y2="120"/>
        <line x1="72.5" y1="130" x2="97.5" y2="130"/>
        <line x1="47.5" y1="160" x2="77.5" y2="160"/>
        <line x1="47.5" y1="170" x2="67.5" y2="170"/>
      </g>
      <g opacity="0.6">
        <line x1="97.5" y1="60" x2="107.5" y2="60"/>
        <line x1="107.5" y1="90" x2="107.5" y2="90"/>
        <line x1="112.5" y1="100" x2="112.5" y2="100"/>
        <line x1="137.5" y1="110" x2="142.5" y2="110"/>
        <line x1="172.5" y1="120" x2="172.5" y2="120"/>
        <line x1="157.5" y1="130" x2="167.5" y2="130"/>
        <line x1="117.5" y1="160" x2="117.5" y2="160"/>
        <line x1="112.5" y1="170" x2="112.5" y2="170"/>
      </g>
      <g opacity="0.5">
        <line x1="137.5" y1="100" x2="187.5" y2="100"/>
        <line x1="67.5" y1="110" x2="92.5" y2="110"/>
        <line x1="207.5" y1="120" x2="227.5" y2="120"/>
        <line x1="122.5" y1="170" x2="157.5" y2="170"/>
      </g>
      <g>
        <line x1="87.5" y1="50" x2="87.5" y2="50"/>
        <line x1="112.5" y1="50" x2="117.5" y2="50"/>
        <line x1="172.5" y1="50" x2="172.5" y2="50"/>
        <line x1="87.5" y1="60" x2="87.5" y2="60"/>
        <line x1="117.5" y1="60" x2="117.5" y2="60"/>
        <line x1="187.5" y1="60" x2="187.5" y2="60"/>
        <line x1="82.5" y1="90" x2="97.5" y2="90"/>
        <line x1="187.5" y1="90" x2="187.5" y2="90"/>
        <line x1="82.5" y1="100" x2="102.5" y2="100"/>
        <line x1="122.5" y1="100" x2="127.5" y2="100"/>
        <line x1="132.5" y1="100" x2="132.5" y2="100"/>
        <line x1="192.5" y1="100" x2="192.5" y2="100"/>
        <line x1="197.5" y1="100" x2="212.5" y2="100"/>
        <line x1="217.5" y1="100" x2="217.5" y2="100"/>
        <line x1="62.5" y1="110" x2="62.5" y2="110"/>
        <line x1="97.5" y1="110" x2="97.5" y2="110"/>
        <line x1="102.5" y1="110" x2="102.5" y2="110"/>
        <line x1="107.5" y1="110" x2="122.5" y2="110"/>
        <line x1="127.5" y1="110" x2="127.5" y2="110"/>
        <line x1="152.5" y1="110" x2="152.5" y2="110"/>
        <line x1="102.5" y1="120" x2="102.5" y2="120"/>
        <line x1="107.5" y1="120" x2="107.5" y2="120"/>
        <line x1="117.5" y1="120" x2="157.5" y2="120"/>
        <line x1="162.5" y1="120" x2="162.5" y2="120"/>
        <line x1="182.5" y1="120" x2="197.5" y2="120"/>
        <line x1="202.5" y1="120" x2="202.5" y2="120"/>
        <line x1="232.5" y1="120" x2="232.5" y2="120"/>
        <line x1="252.5" y1="120" x2="252.5" y2="120"/>
        <line x1="257.5" y1="120" x2="257.5" y2="120"/>
        <line x1="107.5" y1="130" x2="147.5" y2="130"/>
        <line x1="202.5" y1="130" x2="202.5" y2="130"/>
        <line x1="62.5" y1="140" x2="62.5" y2="140"/>
        <line x1="67.5" y1="140" x2="67.5" y2="140"/>
        <line x1="72.5" y1="140" x2="72.5" y2="140"/>
        <line x1="82.5" y1="160" x2="107.5" y2="160"/>
        <line x1="127.5" y1="160" x2="127.5" y2="160"/>
        <line x1="132.5" y1="160" x2="132.5" y2="160"/>
        <line x1="137.5" y1="160" x2="137.5" y2="160"/>
        <line x1="72.5" y1="170" x2="102.5" y2="170"/>
        <line x1="162.5" y1="170" x2="162.5" y2="170"/>
      </g>
      <g opacity="0.2">
        <line x1="32.5" y1="50" x2="32.5" y2="50"/>
        <line x1="32.5" y1="60" x2="32.5" y2="60"/>
        <line x1="32.5" y1="70" x2="32.5" y2="70"/>
        <line x1="32.5" y1="80" x2="32.5" y2="80"/>
        <line x1="32.5" y1="90" x2="32.5" y2="90"/>
        <line x1="32.5" y1="100" x2="32.5" y2="100"/>
        <line x1="32.5" y1="110" x2="32.5" y2="110"/>
        <line x1="32.5" y1="120" x2="32.5" y2="120"/>
        <line x1="32.5" y1="130" x2="32.5" y2="130"/>
        <line x1="32.5" y1="140" x2="27.5" y2="140"/>
        <line x1="32.5" y1="150" x2="27.5" y2="150"/>
        <line x1="32.5" y1="160" x2="27.5" y2="160"/>
        <line x1="32.5" y1="170" x2="27.5" y2="170"/>
      </g>
    </g>
  </symbol>

</svg>